# xmcd
#
# Track frame offsets: 
#        150
#        14975
#        30715
#        46322
#        68152
#        80832
#        90482
#        108245
#        128925
#        153660
#        183862
#        204032
#        238247
#        252020
#
# Disc length: 3486 seconds
#
# Revision: 0
# Processed by: cddbd v1.5.2PL0 Copyright (c) Steve Scherf et al.
# Submitted via: ExactAudioCopy v0.95b4
#
DISCID=b90d9c0e
DTITLE=Чиж and Co - О Любви
DYEAR=1995
DGENRE=Blues
TTITLE0=Дверь в лето
TTITLE1=Ветер вырывает из рук (Последние деньги)
TTITLE2=Солдат на привале
TTITLE3=О.К.
TTITLE4=Я позвонил Вам из телефона-автомата
TTITLE5=Любитель жидкости
TTITLE6=Still Life
TTITLE7=О Любви
TTITLE8=Идиллия
TTITLE9=Прогулка по Одессе
TTITLE10=Вот пуля просвистела
TTITLE11=Мама
TTITLE12=Точка
TTITLE13=Дверь в лето (II)
EXTD=
EXTT0=
EXTT1=
EXTT2=
EXTT3=
EXTT4=
EXTT5=
EXTT6=
EXTT7=
EXTT8=
EXTT9=
EXTT10=
EXTT11=
EXTT12=
EXTT13=
PLAYORDER=
